<?xml version="1.0" encoding="UTF-8"?><svg id="Layer_1" xmlns="http://www.w3.org/2000/svg" viewBox="0 0 48 40"><defs><style>.cls-1{opacity:.75;}.cls-2{fill:#231f20;stroke-width:0px;}</style></defs><g class="cls-1"><path class="cls-2" d="m34.5,33.03s.02.1,0,.15c-.03.05-.07.08-.13.08-.71.09-2.08.26-3.64.42,0,0-.02,0-.02,0l-2.47-6.82c-.15-.42-.61-.63-1.03-.48s-.63.61-.48,1.03l2.33,6.44c-2.28.23-4.02.35-5.05.35s-2.76-.12-5.04-.35l2.33-6.44c.15-.42-.07-.88-.48-1.03-.42-.15-.88.07-1.03.48l-2.47,6.82s-.02,0-.04,0c-1.56-.17-2.93-.34-3.64-.43-.05,0-.1-.04-.12-.08-.03-.05-.03-.1,0-.15l5.61-13.17c.08-.18.13-.36.17-.54h10.15s.02,0,.02,0c.05,0,.09-.02.14-.03.06-.01.12-.02.17-.05.02,0,.04-.03.06-.04.07-.04.14-.08.19-.14.01-.01.02-.03.03-.04.06-.07.11-.15.14-.23,0,0,0,0,0,0,.12-.35.26-.73.41-1.12,1.03-2.77,2.45-6.57-.1-8.91-.51-.47-1.17-.8-1.9-1v-2.77c0-.44-.36-.8-.8-.8s-.8.36-.8.8v2.6c-.13,0-.25-.01-.38,0-1.01.1-1.91.46-2.59,1.01-.68-.56-1.59-.91-2.59-1.01-.13-.01-.25,0-.38,0v-2.6c0-.44-.36-.8-.8-.8s-.8.36-.8.8v2.77c-.73.19-1.4.53-1.91,1-2.49,2.28-1.29,5.37-.32,7.85.17.44.34.88.49,1.3.15.43.13.9-.05,1.32l-5.61,13.16c-.22.51-.18,1.1.09,1.58.28.48.77.81,1.32.88.72.09,2.1.26,3.67.43,2.22.24,5.22.53,6.9.53s4.68-.29,6.9-.53c1.57-.17,2.95-.34,3.67-.43.55-.07,1.04-.4,1.32-.88.28-.48.31-1.07.09-1.58l-6.01-13.96-1.48.63m.59-1.96c-.08.21-.15.41-.22.61h-9.58c-.03-.11-.04-.22-.08-.33-.15-.44-.33-.9-.51-1.36-1.07-2.74-1.65-4.65-.08-6.09.61-.56,1.61-.85,2.65-.75.82.08,1.51.39,1.95.86v.97c0,.44.36.8.8.8s.8-.36.8-.8v-.97c.44-.47,1.13-.78,1.95-.86,1.03-.1,2.04.18,2.64.74,1.76,1.61.61,4.69-.31,7.17Z"/></g></svg>