<?xml version="1.0" encoding="UTF-8"?><svg id="Decor" xmlns="http://www.w3.org/2000/svg" viewBox="0 0 48 40"><defs><style>.cls-1{fill:#231f20;fill-rule:evenodd;opacity:.75;stroke-width:0px;}</style></defs><path class="cls-1" d="m26.12,6.19c.34,0,.63.28.63.63s-.28.63-.63.63-.63-.28-.63-.63.28-.63.63-.63h0Zm0,2.22c.88,0,1.59-.71,1.59-1.59s-.71-1.59-1.59-1.59-1.59.71-1.59,1.59.71,1.59,1.59,1.59h0Zm-5.66-2.22c.35,0,.63.28.63.63s-.28.63-.63.63-.63-.28-.63-.63.28-.63.63-.63h0Zm0,2.22c.88,0,1.59-.71,1.59-1.59s-.72-1.59-1.59-1.59-1.59.71-1.59,1.59.71,1.59,1.59,1.59h0Zm-6.26,21.9c1.4,1.31,3.63,1.03,4.66-.58,1.2,1.87,3.94,1.87,5.15,0,1.21,1.87,3.94,1.87,5.14,0,1.03,1.61,3.27,1.89,4.66.58v3.5H14.19v-3.5h0Zm-.48-4.03c.36,0,.66.3.66.66s-.3.66-.66.66-.66-.3-.66-.66.3-.66.66-.66h0Zm5.15,1.32c-.36,0-.66-.3-.66-.66s.3-.66.66-.66.66.3.66.66-.3.66-.66.66h0Zm5.15,0c-.36,0-.66-.3-.66-.66s.3-.66.66-.66.66.3.66.66-.3.66-.66.66h0Zm5.14,0c-.36,0-.66-.3-.66-.66s.3-.66.66-.66.66.3.66.66-.3.66-.66.66h0Zm-14.18-3.69c-.43,0-.77.35-.77.77v.7c.66.21,1.14.82,1.14,1.55s-.46,1.32-1.1,1.54c.19.96,1.03,1.69,2.05,1.69s1.87-.73,2.05-1.69c-.64-.22-1.11-.83-1.11-1.54,0-.9.73-1.63,1.63-1.63s1.63.73,1.63,1.63c0,.71-.46,1.32-1.11,1.54.19.96,1.04,1.69,2.05,1.69s1.86-.73,2.05-1.69c-.64-.22-1.1-.83-1.1-1.54,0-.9.73-1.63,1.63-1.63s1.63.73,1.63,1.63c0,.71-.46,1.32-1.1,1.54.19.96,1.03,1.69,2.05,1.69s1.86-.73,2.05-1.69c-.64-.22-1.11-.83-1.11-1.54,0-.9.73-1.63,1.63-1.63s1.63.73,1.63,1.63c0,.71-.46,1.32-1.1,1.54.19.96,1.03,1.69,2.05,1.69s1.86-.73,2.05-1.69c-.64-.22-1.11-.83-1.11-1.54s.48-1.35,1.14-1.55v-.7c0-.43-.35-.77-.77-.77H14.97Zm2.08-3.47c.52-.47.92-.5,1.45-.02.89.79,1.83.79,2.71,0,.52-.46.91-.46,1.43,0,.89.79,1.83.79,2.71,0,.52-.46.91-.46,1.43,0,.89.79,1.83.79,2.71,0,.52-.46.91-.46,1.43,0l.03.02v2.5h-13.9v-2.5h0Zm1.07-3.68c-.59,0-1.07.48-1.07,1.07v1.45c.7-.33,1.41-.19,2.09.42.52.46.91.46,1.43,0,.89-.79,1.83-.79,2.71,0,.52.46.91.46,1.43,0,.89-.79,1.83-.79,2.71,0,.52.46.91.46,1.43,0,.68-.61,1.4-.75,2.1-.42v-1.45c0-.59-.48-1.07-1.07-1.07h-11.76Zm.82-4.38v-1.94c0-.29.24-.53.53-.53h1.98c.29,0,.53.24.53.53v1.94c-.48.04-.86.45-.86.94v2.47h-1.32v-2.47c0-.49-.38-.9-.86-.94h0Zm5.91.73c.02-.06.04-.12.04-.18v-2.7c0-.18.14-.32.32-.32h1.83c.17,0,.32.14.32.32v2.7c0,.06.01.12.04.18l1.09,2.68h-4.71l1.09-2.68h0Zm9.44,14.48c-.36,0-.66-.3-.66-.66s.3-.66.66-.66.66.3.66.66-.3.66-.66.66h0Zm6.29,6.21h-5.81v-5.32c.66-.21,1.14-.82,1.14-1.55s-.48-1.35-1.14-1.55v-.7c0-.96-.78-1.74-1.74-1.74h-1.12v-5.11c0-1.12-.91-2.04-2.04-2.04h-.36l-1.2-2.96v-2.6c0-.71-.58-1.28-1.28-1.28h-1.83c-.71,0-1.28.58-1.28,1.28v2.6l-1.2,2.96h-.63v-2.45h.37c.27,0,.48-.22.48-.48v-2.42c0-.82-.67-1.49-1.49-1.49h-1.98c-.82,0-1.49.67-1.49,1.49v2.42c0,.27.22.48.48.48h.37v2.45h-.71c-1.12,0-2.04.91-2.04,2.04v5.11h-1.12c-.96,0-1.74.78-1.74,1.74v.7c-.66.21-1.14.82-1.14,1.55s.48,1.35,1.14,1.55v5.32h-5.8c-.27,0-.48.22-.48.48s.22.48.48.48h33.16c.27,0,.48-.22.48-.48s-.22-.48-.48-.48Z"/></svg>