<?xml version="1.0" encoding="UTF-8"?><svg id="Layer_1" xmlns="http://www.w3.org/2000/svg" viewBox="0 0 48 40"><defs><style>.cls-1{fill:#231f20;opacity:.75;stroke-width:0px;}</style></defs><path class="cls-1" d="m25.96,13.12c0-1.08-.88-1.97-1.97-1.97s-1.97.88-1.97,1.97.88,1.97,1.97,1.97,1.97-.88,1.97-1.97Zm12.77,8.84h-2.9c-4.24,0-8.23,1.94-10.85,5.28v-5.93c.77.42,1.64.64,2.52.64,2.96,0,5.35-2.39,5.35-5.35,0-1.28-.46-2.53-1.31-3.49.85-.97,1.31-2.21,1.31-3.49,0-2.95-2.4-5.35-5.35-5.35-1.28,0-2.52.46-3.49,1.31-.97-.85-2.27-1.31-3.49-1.31-3.01,0-5.4,2.39-5.4,5.35,0,1.28.46,2.53,1.31,3.49-.8.97-1.31,2.21-1.31,3.49,0,2.95,2.39,5.35,5.4,5.35.88,0,1.74-.22,2.51-.64v5.93c-2.61-3.34-6.61-5.28-10.85-5.28h-2.9c-.56,0-1.04.56-.98,1.21.61,7.03,6.53,12.55,13.74,12.55h3.95c7.22,0,13.14-5.52,13.74-12.55.06-.65-.43-1.2-.99-1.2Zm-15.77,11.79h-.93c-5.77,0-10.73-4.25-11.67-9.83h1.81c4.15,0,8,2.17,10.13,5.73.78,1.4.66,2.49.66,4.09Zm1.04-16.19l-.79,1.06c-.63.86-1.63,1.38-2.7,1.38-1.87,0-3.39-1.51-3.39-3.38,0-1.07.51-2.07,1.37-2.7l1.06-.79-1.06-.79c-.86-.63-1.43-1.63-1.43-2.7,0-1.87,1.57-3.38,3.44-3.38,1.07,0,2.07.51,2.7,1.37l.79,1.06.79-1.06c.63-.86,1.63-1.37,2.7-1.37,1.87,0,3.39,1.51,3.39,3.38,0,1.07-.51,2.07-1.37,2.65l-1.06.85,1.06.79c.86.63,1.37,1.63,1.37,2.7,0,1.87-1.52,3.38-3.39,3.38-1.07,0-2.07-.51-2.7-1.37l-.79-1.06Zm1.97,16.19h-.98c0-1.54-.12-2.69.71-4.09,2.13-3.56,5.98-5.73,10.13-5.73h1.82c-.95,5.58-5.91,9.83-11.68,9.83Z"/></svg>