<?xml version="1.0" encoding="UTF-8"?><svg id="Dresses" xmlns="http://www.w3.org/2000/svg" viewBox="0 0 48 40"><defs><style>.cls-1{fill:#231f20;opacity:.75;stroke-width:0px;}</style></defs><path class="cls-1" d="m18.76,30.48c.44,4.07.88,6.65.89,6.65v.02s.02.07.04.1c0,.02.02.04.03.05.03.03.06.06.09.09l.03.02h.02s.08.03.12.04h0c2.52.32,5.02.78,7.49,1.37h.09c.18,0,.33-.11.39-.28,1.47-4.63,2.25-9.44,2.31-14.3,0-.04,0-.08-.02-.12.15-.84.19-1.69.14-2.54-.18-1.53-.51-3.04-1.01-4.51-.41-1.39-.8-2.7-.76-3.63.08-1.9.92-5.38.93-5.41.03-.08.03-.18,0-.26,0-.03-1.36-3.2-.45-5.57.08-.21-.03-.45-.24-.53,0,0-.01,0-.02,0l-1.54-.48c-.17-.05-.36.01-.46.16-1.97.45-4.01.44-5.97-.05h-.24l-1.12.35c-.18.06-.3.23-.29.41,0,.04,0,3.73-.78,5.76-.03.09-.03.19,0,.29,0,.03,1.2,3.48.95,5.63-.18,1.07-.46,2.12-.83,3.14-.45,1.2-.76,2.45-.93,3.73-.14,2.37.22,4.35.6,6.44.19,1.1.4,2.24.54,3.45Zm8.56,7.48c-2.68-.59-4.59-.93-5.77-1.11,1.61-.83,4.26-2.48,5.69-5.09.78-1.4,1.48-2.85,2.07-4.35-.28,3.58-.95,7.11-1.99,10.55Zm-1.2-35.6c-.51.59-1.25.95-2.04.97-.84-.04-1.63-.38-2.22-.97.72.11,1.45.17,2.18.17.69,0,1.39-.06,2.07-.17Zm-7.67,18.29c.16-1.21.46-2.39.89-3.54.39-1.07.69-2.18.87-3.31.08-1.05,0-2.11-.23-3.14.38.15.79.24,1.2.24.33,0,.66-.06.97-.18.2-.08.3-.3.24-.5-.08-.21-.32-.32-.53-.25,0,0,0,0,0,0-.67.21-1.4.11-2-.27-.03-.02-.07-.04-.11-.05-.19-.79-.41-1.41-.48-1.68.67-1.87.77-4.7.77-5.62l.54-.17c.45.6,1.68,1.97,3.49,1.97s2.88-1.41,3.28-2.07l.79.25c-.67,2.34.3,5.03.55,5.65-.06.26-.21.9-.36,1.66-.03,0-.05.02-.07.03-.59.38-1.32.48-2,.27-.21-.08-.45.03-.53.24,0,0,0,0,0,0-.08.21.03.45.24.53.31.12.64.18.97.18.41,0,.82-.09,1.2-.24-.18.91-.3,1.83-.36,2.75-.05,1.06.36,2.44.8,3.9.48,1.41.81,2.86.99,4.34.19,2.53-.75,5.52-3.03,9.71-1.59,2.9-4.9,4.58-6.13,5.12-.14-.94-.47-3.1-.8-6.1-.14-1.24-.35-2.39-.55-3.5-.38-2.04-.73-3.97-.59-6.24Z"/></svg>