<?xml version="1.0" encoding="UTF-8"?><svg id="Layer_1" xmlns="http://www.w3.org/2000/svg" viewBox="0 0 48 40"><defs><style>.cls-1{opacity:.75;}.cls-2{fill:#231f20;stroke-width:0px;}</style></defs><g class="cls-1"><path class="cls-2" d="m14.69,12.24c-.86,0-1.55.69-1.55,1.55v1.93l9.49,6.95c.82.6,1.93.6,2.75,0l9.49-6.95v-1.93c0-.86-.69-1.55-1.55-1.55H14.69Zm-1.55,5.41v8.55c0,.86.69,1.55,1.55,1.55h18.62c.86,0,1.55-.69,1.55-1.55v-8.55l-8.57,6.28c-1.37,1-3.22,1-4.59,0l-8.57-6.28Zm-1.55-3.86c0-1.71,1.39-3.1,3.1-3.1h18.62c1.71,0,3.1,1.39,3.1,3.1v12.41c0,1.71-1.39,3.1-3.1,3.1H14.69c-1.71,0-3.1-1.39-3.1-3.1v-12.41Z"/></g></svg>