<?xml version="1.0" encoding="UTF-8"?><svg id="Layer_1" xmlns="http://www.w3.org/2000/svg" viewBox="0 0 48 40"><defs><style>.cls-1{fill:#231f20;}.cls-1,.cls-2,.cls-3{stroke-width:0px;}.cls-1,.cls-3{opacity:.75;}.cls-2{fill:none;}</style></defs><path class="cls-2" d="m37.25,14.35c0-1.25-.77-2.37-1.94-2.82-.8-.25-1.62-.43-2.44-.55l2.9,4.95c.34.58.27,1.32-.18,1.82l-2.82,3.14,1.21,1.62c.35.46.41,1.09.15,1.61-1.15,2.33-2.53,4.55-4.12,6.61-.71.91-1.49,1.75-2.34,2.52h7.22c1.3,0,2.36-1.06,2.36-2.36V14.35Z"/><path class="cls-2" d="m22.76,33.21c-3.67-7.52-5.75-17.05-6.53-21.14l-2.71,4.62,2.93,3.32c.41.46.44,1.16.07,1.65l-1.3,1.75c1.08,2.26,2.4,4.41,3.94,6.39.99,1.34,2.21,2.49,3.59,3.41Z"/><path class="cls-2" d="m34.47,16.74l-2.7-4.66c-.78,4.1-2.86,13.61-6.52,21.13,1.38-.92,2.6-2.08,3.59-3.41,1.52-1.98,2.85-4.1,3.95-6.34l-1.31-1.79c-.37-.5-.34-1.19.07-1.65l2.92-3.27Z"/><path class="cls-2" d="m29.23,9.44c.64.64,1.01,1.5,1.06,2.4.19-1,.3-1.67.34-1.91l-.42-2.3-1.46,1.58c.18.04.34.12.49.23Z"/><path class="cls-2" d="m18.77,9.44c.14-.11.31-.19.49-.23l-1.46-1.58-.43,2.3c.04.24.15.91.34,1.91.04-.9.42-1.76,1.05-2.4Z"/><path class="cls-2" d="m24.65,13.24c0-.36-.29-.65-.65-.64-.36,0-.65.29-.64.65,0,.36.29.64.65.64.36,0,.65-.29.65-.65Z"/><path class="cls-2" d="m23.18,11.26c.52-.22,1.11-.22,1.63,0l4.15-4.51h-9.94l4.15,4.51Z"/><path class="cls-2" d="m19.62,15.8c.93-.36,1.76-.92,2.44-1.64-.28-.58-.28-1.25,0-1.83-.68-.72-1.52-1.28-2.44-1.64-.4.79-.57,1.67-.5,2.56-.07.88.1,1.77.5,2.56Z"/><path class="cls-2" d="m28.37,15.8c.4-.79.57-1.67.5-2.56.07-.88-.1-1.77-.5-2.56-.92.36-1.75.92-2.44,1.64.28.58.28,1.25,0,1.82.68.72,1.51,1.28,2.44,1.64Z"/><path class="cls-2" d="m29.15,17.1c-.2.15-.45.22-.7.22-.64,0-1.72-.43-3.59-2.12-.27.12-.56.19-.86.19-.3,0-.59-.06-.86-.18-1.87,1.69-2.95,2.12-3.59,2.12-.25,0-.5-.07-.7-.22,1.2,5.24,2.92,10.34,5.15,15.22,2.22-4.89,3.95-9.99,5.15-15.23Zm-5.15.7c.41,0,.74.33.74.74s-.33.74-.74.74-.74-.33-.74-.74h0c0-.41.33-.74.74-.74Zm0,3.9c.41,0,.74.33.74.74s-.33.74-.74.74-.74-.33-.74-.74c0,0,0,0,0,0,0-.41.33-.74.74-.74Zm0,3.91c.41,0,.74.33.74.74s-.33.74-.74.74-.74-.33-.74-.74c0,0,0,0,0,0,0-.41.33-.74.74-.74h0Z"/><path class="cls-1" d="m35.85,10.13c-1.02-.32-2.06-.55-3.12-.7-.23-.04-.48-.08-.7-.12l-.39-2.1c-.19-1.13-1.17-1.96-2.32-1.96h-10.64c-.54,0-1.07.19-1.49.53-.01,0-.02.02-.03.03h-.01s0,.02-.01.02c-.41.35-.69.83-.79,1.37l-.39,2.11c-.21.04-.47.08-.7.12-1.06.15-2.1.38-3.12.7-1.74.68-2.89,2.35-2.9,4.22v16.53c0,.41,1.5.41,1.5,0V14.35c0-1.25.77-2.37,1.94-2.82.8-.25,1.62-.43,2.44-.55l-2.9,4.95c-.34.58-.27,1.32.18,1.82l2.82,3.15-1.21,1.62c-.35.46-.41,1.09-.15,1.61,1.15,2.33,2.53,4.55,4.12,6.61.71.91,1.49,1.75,2.34,2.52h-7.22c-1.3,0-2.36-1.06-2.36-2.36h-1.5c0,2.13,1.73,3.86,3.86,3.86h21.78c2.13,0,3.86-1.73,3.86-3.86V14.35c0-1.87-1.16-3.54-2.9-4.22Zm-4.38,11.53l1.31,1.79c-1.1,2.24-2.43,4.37-3.95,6.35-.99,1.34-2.21,2.49-3.59,3.42,3.67-7.51,5.74-17.03,6.52-21.13l2.7,4.66-2.92,3.26c-.41.46-.44,1.15-.07,1.65Zm-13.67-14.03l1.46,1.58c-.18.04-.34.12-.49.23-.64.64-1.01,1.5-1.05,2.4-.19-1-.3-1.67-.34-1.91l.43-2.3Zm12.83,2.3c-.04.24-.15.91-.34,1.91-.04-.9-.42-1.76-1.06-2.4-.14-.11-.31-.19-.49-.23l1.46-1.58.43,2.3Zm-8.56,2.4c-.28.58-.28,1.25,0,1.83-.68.72-1.52,1.28-2.44,1.65-.4-.79-.57-1.68-.5-2.56-.07-.88.1-1.76.5-2.56.92.36,1.76.92,2.44,1.64h0Zm1.29.91c0-.36.29-.64.65-.64.36,0,.64.29.64.65,0,.36-.29.64-.65.64-.36,0-.65-.29-.65-.65h0Zm2.58-.91c.68-.72,1.52-1.28,2.44-1.64.4.79.57,1.67.5,2.56.07.88-.1,1.77-.5,2.56-.92-.36-1.76-.92-2.44-1.64.28-.58.28-1.25,0-1.82h0Zm-1.12-1.07c-.52-.22-1.11-.22-1.63,0l-4.15-4.51h9.94l-4.15,4.51Zm-5.26,6.06c.64,0,1.72-.43,3.59-2.12.27.12.56.18.86.18.3,0,.59-.06.86-.18,1.87,1.69,2.95,2.12,3.59,2.12.25,0,.5-.07.7-.22-1.2,5.24-2.93,10.34-5.15,15.23-2.22-4.89-3.95-9.99-5.15-15.22.2.15.45.22.7.22Zm-.38,12.48c-1.54-1.98-2.86-4.12-3.94-6.39l1.3-1.75c.37-.5.34-1.19-.07-1.65l-2.93-3.32,2.71-4.62c.78,4.09,2.86,13.62,6.52,21.14-1.38-.92-2.6-2.07-3.59-3.41Zm18.08,1.09c0,1.3-1.06,2.36-2.36,2.36h-7.22c.85-.77,1.63-1.62,2.34-2.52,1.59-2.06,2.97-4.27,4.12-6.61.26-.52.2-1.14-.15-1.61l-1.21-1.62,2.82-3.14c.45-.5.53-1.24.18-1.82l-2.9-4.95c.83.12,1.65.31,2.44.55,1.16.45,1.93,1.57,1.94,2.82,0,0,0,16.53,0,16.53Z"/><path class="cls-3" d="m24,19.28c.41,0,.74-.33.74-.74s-.33-.74-.74-.74-.74.33-.74.74c0,0,0,0,0,0,0,.41.33.74.74.74Z"/><path class="cls-3" d="m24,23.19c.41,0,.74-.33.74-.74s-.33-.74-.74-.74-.74.33-.74.74.33.74.74.74h0Z"/><path class="cls-3" d="m24,27.09c.41,0,.74-.33.74-.74s-.33-.74-.74-.74-.74.33-.74.74.33.74.74.74h0Z"/></svg>